<svg width="24" height="24" viewBox="0 0 24 24" fill="none" xmlns="http://www.w3.org/2000/svg">
<mask id="mask0_345_1845" style="mask-type:alpha" maskUnits="userSpaceOnUse" x="0" y="0" width="24" height="24">
<rect width="24" height="24" fill="#D9D9D9"/>
</mask>
<g mask="url(#mask0_345_1845)">
<path d="M20.1711 12.6498H8.97693V11.3499H20.1711L18.4769 9.6556L19.4057 8.746L22.6595 11.9998L19.4057 15.2537L18.4769 14.3441L20.1711 12.6498ZM15.2019 9.1652V5.70755C15.2019 5.6178 15.1731 5.54408 15.1154 5.48638C15.0577 5.42868 14.9839 5.39983 14.8942 5.39983H5.70768C5.61793 5.39983 5.5442 5.42868 5.4865 5.48638C5.4288 5.54408 5.39995 5.6178 5.39995 5.70755V18.2921C5.39995 18.3819 5.4288 18.4556 5.4865 18.5133C5.5442 18.571 5.61793 18.5998 5.70768 18.5998H14.8942C14.9839 18.5998 15.0577 18.571 15.1154 18.5133C15.1731 18.4556 15.2019 18.3819 15.2019 18.2921V14.8345H16.5019V18.2921C16.5019 18.7358 16.3448 19.1147 16.0308 19.4287C15.7168 19.7428 15.3379 19.8998 14.8942 19.8998H5.70768C5.26396 19.8998 4.88508 19.7428 4.57105 19.4287C4.257 19.1147 4.09998 18.7358 4.09998 18.2921V5.70755C4.09998 5.26384 4.257 4.88496 4.57105 4.57093C4.88508 4.25688 5.26396 4.09985 5.70768 4.09985H14.8942C15.3379 4.09985 15.7168 4.25688 16.0308 4.57093C16.3448 4.88496 16.5019 5.26384 16.5019 5.70755V9.1652H15.2019Z" fill="#AEB6BE"/>
</g>
</svg>
