<svg width="22" height="19" viewBox="0 0 22 19" fill="none" xmlns="http://www.w3.org/2000/svg">
<path d="M2.30768 18.3846C1.81056 18.3846 1.385 18.2076 1.031 17.8536C0.677 17.4995 0.5 17.074 0.5 16.5769V4.53848H1.99995V16.5769C1.99995 16.6666 2.0288 16.7403 2.0865 16.798C2.1442 16.8557 2.21793 16.8846 2.30768 16.8846H18.4999V18.3846H2.30768ZM5.80763 14.8846C5.31051 14.8846 4.88495 14.7076 4.53095 14.3536C4.17695 13.9996 3.99995 13.574 3.99995 13.0769V2.3077C3.99995 1.81058 4.17695 1.38503 4.53095 1.03103C4.88495 0.677009 5.31051 0.5 5.80763 0.5H10.7884L12.7884 2.5H19.6922C20.1893 2.5 20.6149 2.67701 20.9689 3.03103C21.3229 3.38503 21.4999 3.81058 21.4999 4.3077V13.0769C21.4999 13.574 21.3229 13.9996 20.9689 14.3536C20.6149 14.7076 20.1893 14.8846 19.6922 14.8846H5.80763Z" fill="#1C1E1E"/>
</svg>
