<svg width="20" height="20" viewBox="0 0 20 20" fill="none" xmlns="http://www.w3.org/2000/svg">
<mask id="mask0_359_1348" style="mask-type:alpha" maskUnits="userSpaceOnUse" x="0" y="0" width="20" height="20">
<rect width="20" height="20" fill="#D9D9D9"/>
</mask>
<g mask="url(#mask0_359_1348)">
<path d="M15.8895 16.6472L10.9264 11.684C10.5097 12.0003 10.0528 12.2452 9.55571 12.4188C9.0586 12.5924 8.54565 12.6792 8.01686 12.6792C6.71707 12.6792 5.61209 12.2243 4.70192 11.3144C3.79175 10.4044 3.33667 9.30001 3.33667 8.00108C3.33667 6.70214 3.79163 5.59727 4.70155 4.68648C5.61146 3.7757 6.71589 3.32031 8.01484 3.32031C9.31377 3.32031 10.4186 3.7754 11.3294 4.68556C12.2402 5.59573 12.6956 6.70071 12.6956 8.0005C12.6956 8.54532 12.6061 9.06628 12.4272 9.5634C12.2482 10.0605 12.006 10.5094 11.7004 10.91L16.6635 15.8732L15.8895 16.6472ZM8.01613 11.5959C9.02041 11.5959 9.87084 11.2476 10.5674 10.5511C11.264 9.85448 11.6123 9.00405 11.6123 7.99977C11.6123 6.99549 11.264 6.14506 10.5674 5.44848C9.87084 4.7519 9.02041 4.4036 8.01613 4.4036C7.01185 4.4036 6.16142 4.7519 5.46484 5.44848C4.76827 6.14506 4.41998 6.99549 4.41998 7.99977C4.41998 9.00405 4.76827 9.85448 5.46484 10.5511C6.16142 11.2476 7.01185 11.5959 8.01613 11.5959Z" fill="white"/>
</g>
</svg>
