<svg width="32" height="32" viewBox="0 0 32 32" fill="none" xmlns="http://www.w3.org/2000/svg">
<mask id="mask0_416_2010" style="mask-type:alpha" maskUnits="userSpaceOnUse" x="0" y="0" width="32" height="32">
<rect width="32" height="32" fill="#D9D9D9"/>
</mask>
<g mask="url(#mask0_416_2010)">
<path d="M5.6 26C4.885 26 4.27292 25.7552 3.76375 25.2656C3.25458 24.776 3 24.1875 3 23.5V8.5C3 7.8125 3.25458 7.22396 3.76375 6.73438C4.27292 6.24479 4.885 6 5.6 6H21.2C21.915 6 22.5271 6.24479 23.0362 6.73438C23.5454 7.22396 23.8 7.8125 23.8 8.5V14.125L29 9.125V22.875L23.8 17.875V23.5C23.8 24.1875 23.5454 24.776 23.0362 25.2656C22.5271 25.7552 21.915 26 21.2 26H5.6Z" fill="#8E949A"/>
</g>
</svg>
